# xmcd
#
# Track frame offsets:
#	150
#	14301
#	31545
#	46129
#	63601
#	79366
#	94590
#	111983
#	129433
#	142477
#	158170
#	175634
#
# Disc length: 2545 seconds
#
# Revision: 1
# Processed by: cddbd v1.5.2PL0 Copyright (c) Steve Scherf et al.
# Submitted via: audiograbber 1.83.01
#
DISCID=9a09ef0c
DTITLE=Pedro Paulo and Matheus - Pedro Paulo and Matheus
DYEAR=2006
DGENRE=Sertanejo
TTITLE0=Aonde Está
TTITLE1=Não Sei Se Vou Lá
TTITLE2=Aôô Buteco (Ô Mulher Você Me Mata)
TTITLE3=Apaixonado
TTITLE4=Deixa
TTITLE5=Eu Vou Te Buscar
TTITLE6=Madrugada De Espera
TTITLE7=Minta, Finja
TTITLE8=Nas Filas Da Vida
TTITLE9=Pra Ver Você Feliz (You Got It)
TTITLE10=Saudade
TTITLE11=Uma Paixão
EXTD=
EXTT0=
EXTT1=
EXTT2=
EXTT3=
EXTT4=
EXTT5=
EXTT6=
EXTT7=
EXTT8=
EXTT9=
EXTT10=
EXTT11=
PLAYORDER=
